<svg width="56" height="61" viewBox="0 0 56 61" fill="none" xmlns="http://www.w3.org/2000/svg">
<g id="Group 60">
<ellipse id="Ellipse 2" cx="38" cy="17.5" rx="18" ry="17.5" fill="#E7F1FB"/>
<circle id="Ellipse 4" cx="3" cy="12" r="1.5" stroke="#D7E5F2"/>
<g id="Group 58">
<path id="quiz" d="M9.87437 50.1255C10.9201 51.1712 12.2464 51.6826 13.7825 51.6826H45.4346C46.9707 51.6826 48.2971 51.1712 49.3428 50.1255C50.3885 49.0798 50.8998 47.7534 50.8998 46.2173V14.5652C50.8998 13.0291 50.3885 11.7028 49.3428 10.6571C48.2971 9.61139 46.9707 9.1 45.4346 9.1H13.7825C12.2464 9.1 10.9201 9.61139 9.87437 10.6571C8.82867 11.7028 8.31729 13.0291 8.31729 14.5652V46.2173C8.31729 47.7534 8.82867 49.0798 9.87437 50.1255Z" fill="white" stroke="#005FBF" stroke-width="1.8"/>
<g id="close">
<mask id="mask0_1218_1253" style="mask-type:alpha" maskUnits="userSpaceOnUse" x="39" y="13" width="8" height="8">
<rect id="Bounding box" x="39" y="13" width="7.89474" height="7.89474" fill="#D9D9D9"/>
</mask>
<g mask="url(#mask0_1218_1253)">
<path id="close_2" d="M42.9467 17.6712L41.4664 19.1515C41.3678 19.2502 41.2471 19.2995 41.1046 19.2995C40.9621 19.2995 40.8414 19.2502 40.7428 19.1515C40.6441 19.0528 40.5947 18.9322 40.5947 18.7897C40.5947 18.6471 40.6441 18.5265 40.7428 18.4278L42.223 16.9476L40.7428 15.4673C40.6441 15.3686 40.5947 15.248 40.5947 15.1054C40.5947 14.9629 40.6441 14.8423 40.7428 14.7436C40.8414 14.6449 40.9621 14.5956 41.1046 14.5956C41.2471 14.5956 41.3678 14.6449 41.4664 14.7436L42.9467 16.2239L44.427 14.7436C44.5256 14.6449 44.6463 14.5956 44.7888 14.5956C44.9313 14.5956 45.052 14.6449 45.1506 14.7436C45.2493 14.8423 45.2987 14.9629 45.2987 15.1054C45.2987 15.248 45.2493 15.3686 45.1506 15.4673L43.6704 16.9476L45.1506 18.4278C45.2493 18.5265 45.2987 18.6471 45.2987 18.7897C45.2987 18.9322 45.2493 19.0528 45.1506 19.1515C45.052 19.2502 44.9313 19.2995 44.7888 19.2995C44.6463 19.2995 44.5256 19.2502 44.427 19.1515L42.9467 17.6712Z" fill="#9BB9D7"/>
</g>
</g>
<path id="quiz_2" d="M31.0939 34.6153L31.0955 34.6074L31.0964 34.5994C31.1952 33.7603 31.4281 33.0831 31.7859 32.5583C32.1519 32.0215 32.8842 31.2492 33.9984 30.2362C35.2239 29.1637 36.1044 28.1574 36.627 27.2167C37.1526 26.2706 37.413 25.1966 37.413 24C37.413 21.9675 36.6808 20.2535 35.2201 18.871C33.7592 17.4884 31.9331 16.8 29.7565 16.8C28.3533 16.8 27.0511 17.1382 25.8538 17.815C24.655 18.4926 23.6918 19.4567 22.9648 20.7025C22.7821 21.0078 22.7511 21.3366 22.8729 21.6716C22.9919 21.9989 23.2078 22.235 23.5192 22.3596C23.8175 22.4789 24.1401 22.4907 24.4789 22.406C24.8301 22.3182 25.1036 22.1237 25.2849 21.8233C25.828 20.9847 26.4645 20.3635 27.1921 19.9512C27.9184 19.5396 28.771 19.3304 29.7565 19.3304C31.235 19.3304 32.4536 19.7725 33.4271 20.6487C34.3975 21.5221 34.8826 22.6338 34.8826 24C34.8826 24.8226 34.6535 25.5835 34.1925 26.2871C33.7256 26.9998 32.9176 27.8604 31.7563 28.8703C30.6817 29.7915 29.9022 30.6712 29.43 31.5106C28.9586 32.3488 28.6734 33.3376 28.5691 34.4718C28.5083 34.7942 28.6127 35.0931 28.8462 35.3557C29.0869 35.6265 29.3948 35.7652 29.7565 35.7652C30.1103 35.7652 30.4159 35.6451 30.6588 35.4023C30.8865 35.1746 31.0346 34.9118 31.0939 34.6153ZM29.7565 43.9826C30.3727 43.9826 30.9168 43.7421 31.3816 43.2773C31.8465 42.8124 32.0869 42.2683 32.0869 41.6521C32.0869 41.0359 31.8465 40.4919 31.3816 40.027C30.9168 39.5622 30.3727 39.3217 29.7565 39.3217C29.1403 39.3217 28.5962 39.5622 28.1314 40.027C27.6666 40.4919 27.4261 41.0359 27.4261 41.6521C27.4261 42.2683 27.6666 42.8124 28.1314 43.2773C28.5962 43.7421 29.1403 43.9826 29.7565 43.9826Z" fill="#E7F1FB" stroke="#E7F1FB" stroke-width="0.4"/>
<path id="quiz_3" d="M1.93992 58.06C2.90412 59.0241 4.12569 59.4999 5.56521 59.4999H38.2826C38.7106 59.4999 39.0942 59.3519 39.397 59.0491L39.0434 58.6955L39.397 59.0491C39.6998 58.7463 39.8478 58.3627 39.8478 57.9347C39.8478 57.5066 39.6998 57.123 39.397 56.8202C39.0942 56.5174 38.7106 56.3694 38.2826 56.3694H5.56521C5.1126 56.3694 4.67635 56.1865 4.24485 55.755C3.81336 55.3235 3.63043 54.8873 3.63043 54.4347V21.7173C3.63043 21.2893 3.48243 20.9057 3.17964 20.6029C2.87684 20.3001 2.49324 20.1521 2.06522 20.1521C1.63719 20.1521 1.25359 20.3001 0.950794 20.6029C0.647998 20.9057 0.5 21.2893 0.5 21.7173V54.4347C0.5 55.8742 0.975729 57.0958 1.93992 58.06Z" fill="#E7F1FB" stroke="#E7F1FB"/>
</g>
<g id="close_3">
<mask id="mask1_1218_1253" style="mask-type:alpha" maskUnits="userSpaceOnUse" x="11" y="34" width="13" height="13">
<rect id="Bounding box_2" x="11.7891" y="34.7896" width="12.2105" height="12.2105" fill="#D9D9D9"/>
</mask>
<g mask="url(#mask1_1218_1253)">
<path id="close_4" d="M17.8941 42.0142L15.6046 44.3037C15.452 44.4563 15.2654 44.5326 15.0449 44.5326C14.8245 44.5326 14.6379 44.4563 14.4853 44.3037C14.3327 44.1511 14.2563 43.9645 14.2563 43.744C14.2563 43.5236 14.3327 43.337 14.4853 43.1844L16.7748 40.8949L14.4853 38.6054C14.3327 38.4528 14.2563 38.2663 14.2563 38.0458C14.2563 37.8253 14.3327 37.6388 14.4853 37.4861C14.6379 37.3335 14.8245 37.2572 15.0449 37.2572C15.2654 37.2572 15.452 37.3335 15.6046 37.4861L17.8941 39.7756L20.1835 37.4861C20.3362 37.3335 20.5227 37.2572 20.7432 37.2572C20.9637 37.2572 21.1502 37.3335 21.3028 37.4861C21.4555 37.6388 21.5318 37.8253 21.5318 38.0458C21.5318 38.2663 21.4555 38.4528 21.3028 38.6054L19.0134 40.8949L21.3028 43.1844C21.4555 43.337 21.5318 43.5236 21.5318 43.744C21.5318 43.9645 21.4555 44.1511 21.3028 44.3037C21.1502 44.4563 20.9637 44.5326 20.7432 44.5326C20.5227 44.5326 20.3362 44.4563 20.1835 44.3037L17.8941 42.0142Z" fill="#9BB9D7"/>
</g>
</g>
<circle id="Ellipse 5" cx="48" cy="59" r="2" fill="#D7E5F2"/>
</g>
</svg>
